<svg width="156" height="39" viewBox="0 0 156 39" fill="none" xmlns="http://www.w3.org/2000/svg">
<path fill-rule="evenodd" clip-rule="evenodd" d="M119.164 30.6539L118.816 30.6542C115.747 30.6594 114.406 30.7319 114.406 30.7319L114.796 30.0689L114.819 30.0257C114.896 29.8855 114.968 29.754 115.036 29.6175L115.098 29.4867L115.157 29.3502C115.573 28.3456 115.771 26.7077 115.771 20.124V12.558H113.275C115.303 10.881 115.615 9.35998 115.732 7.91698L115.771 7.29299C116.044 2.72999 118.072 0 124.429 0C127.198 0 128.173 0.350999 128.173 0.350999C128.173 0.350999 128.134 1.677 128.134 2.84699C128.134 4.17299 128.173 5.57699 128.173 5.57699C128.145 5.54271 128.112 5.50171 128.076 5.45528L128.076 5.45505C127.654 4.92026 126.667 3.66599 125.053 3.66599C124 3.66599 123.337 4.01699 122.986 4.52399C122.401 5.26499 122.362 6.08399 122.362 7.91698V9.08698H123.415C126.379 9.08698 127.081 8.65798 127.081 8.65798C127.081 8.65798 127.042 9.32098 127.042 10.959L127.042 11.2288C127.046 12.7034 127.081 13.26 127.081 13.26C127.081 13.26 126.301 12.831 123.415 12.831H122.479L122.48 20.8021C122.496 27.6893 122.709 28.6084 123.532 30.0299L123.961 30.7319C123.961 30.7319 122.596 30.6539 119.164 30.6539ZM89.451 8.9297L97.329 7.95471L97.1339 14.5456L97.1929 14.1639C98.1203 8.54516 100.994 7.79871 102.711 7.79871C104.739 7.79871 105.402 8.5007 105.402 8.5007C105.402 8.5007 105.324 9.4757 105.324 11.8157L105.324 12.134C105.33 14.5114 105.402 15.4427 105.402 15.4427C104.193 13.6877 102.477 13.2197 100.995 13.2197C98.148 13.2197 97.485 14.8187 97.485 14.8187L97.4854 20.5804C97.4999 28.252 97.8822 28.9058 98.4438 29.8662L98.4857 29.9381C98.503 29.9678 98.5204 29.9979 98.538 30.0287L98.967 30.7307C98.967 30.7307 97.446 30.6527 94.131 30.6527L93.7833 30.653C90.7203 30.6581 89.451 30.7307 89.451 30.7307L89.802 30.0677C89.8361 30.006 89.8693 29.9467 89.9017 29.8884L89.9654 29.7728C90.4869 28.8123 90.777 27.8518 90.777 20.1227V18.5627C90.777 12.2655 90.4713 10.8944 89.9232 9.82007L89.8432 9.66811L89.802 9.5927L89.451 8.9297ZM15.795 24.0242C15.795 28.0412 13.104 31.0052 7.01999 31.0052C2.77875 31.0052 0.459316 29.9803 0.0616991 29.7881L0 29.7572C0 29.7572 0.0779999 29.0162 0.0779999 26.8712L0.0774861 26.55C0.0707482 24.4578 0 23.3612 0 23.3612C1.716 26.1692 3.66599 27.1052 6.23999 27.1052C8.77498 27.1052 9.59398 26.1692 9.59398 24.9212C9.59398 23.7122 8.96998 23.2052 7.68299 22.5422L4.60199 20.9822C2.067 19.7342 0.0389999 18.0962 0.0389999 14.5083C0.0389999 10.2183 2.96399 7.83926 8.22898 7.83926C13.104 7.83926 14.937 9.08726 14.937 9.08726C14.937 9.08726 14.859 9.90626 14.859 12.1293L14.8595 12.4487C14.8666 14.4197 14.937 15.4053 14.937 15.4053C13.494 13.1043 11.895 11.7003 9.16498 11.7003C7.37099 11.7003 6.00599 12.0903 6.00599 13.6503C6.00599 14.8983 6.82499 15.4053 8.50198 16.2632L11.193 17.5892C14.04 18.9542 15.795 20.6702 15.795 24.0242ZM34.0472 25.5444C33.1502 29.6784 30.6152 31.1214 27.1442 31.1214C24.1022 31.1214 22.2302 30.1854 21.2162 28.3524C20.2802 26.7144 20.1632 24.9204 20.1632 20.3574L20.1629 18.1215C20.1561 12.6317 20.018 11.2258 19.6044 10.2143L19.5368 10.0573C19.5018 9.97995 19.4651 9.90381 19.4265 9.8271L19.3469 9.67239L19.3052 9.59346L18.9542 8.93046L27.1052 7.95546C27.1052 7.95546 26.8712 11.2315 26.8712 16.2234V18.7974C26.8712 23.3214 27.0272 24.7254 27.5342 25.5444C27.8852 26.2074 28.5872 26.9094 30.3422 26.9094C33.2282 26.9094 33.7742 25.1934 33.7742 25.1934L33.7739 18.1215C33.7664 12.0538 33.5985 10.9751 33.0754 9.90368L32.9983 9.75013C32.9717 9.69861 32.9444 9.64656 32.9162 9.59346L32.5652 8.93046L40.6771 7.95546C40.6771 7.95546 40.4821 12.2455 40.4821 16.2234L40.4827 20.7989C40.4979 27.153 40.847 28.2216 41.4571 29.3274L41.8081 29.9904L33.8522 30.9654L34.0472 25.5444ZM53.8199 39.0006C58.7729 39.0006 66.3779 37.3236 66.3779 30.9276C66.3779 26.1306 62.7119 25.5456 59.2799 25.5456H53.7029C52.4159 25.5456 51.4019 25.3116 51.4019 23.9856C51.4019 23.1936 51.737 22.7087 51.8401 22.5783L51.8699 22.5426C51.8699 22.5426 53.4689 22.6596 54.5999 22.6596C61.6199 22.6596 63.8039 19.1886 63.8039 15.9906C63.8039 13.1323 62.2081 12.1237 61.9894 11.9854L61.9709 11.9736H62.8289C65.0909 12.0126 66.4559 12.4026 66.4559 12.4026C66.4559 12.4026 66.4169 11.8956 66.4169 10.2576C66.4169 8.61961 66.4559 7.95661 66.4559 7.95661L66.4224 7.96287L66.3238 7.98038C65.8032 8.07043 63.7928 8.38561 61.1519 8.38561H58.0319L58.0013 8.37487C57.7773 8.2984 56.3354 7.83961 53.9759 7.83961C47.6969 7.83961 44.5769 11.2716 44.5769 15.3276C44.5769 18.9546 46.6829 21.7626 51.1289 22.3866C51.1289 22.3866 46.6049 23.4786 46.6049 26.9496C46.6049 29.7186 49.1399 30.1086 49.1399 30.1086C47.4629 30.3036 43.8749 30.9666 43.8749 34.3206C43.8749 37.5576 48.1649 39.0006 53.8199 39.0006ZM50.856 15.3663C50.856 18.0963 51.987 19.5783 54.327 19.5783C57.018 19.5783 57.681 17.4333 57.681 15.2103C57.681 12.4803 56.55 10.9593 54.21 10.9593C51.519 10.9593 50.856 13.1433 50.856 15.3663ZM54.483 35.6461C49.998 35.6461 48.867 34.2421 48.867 32.6431C48.867 30.8881 50.115 30.4201 50.115 30.4201H58.032C59.397 30.4201 60.957 30.5371 60.957 32.2921C60.957 34.5931 58.11 35.6461 54.483 35.6461ZM81.6659 26.3256C80.6129 30.5766 77.6099 31.1226 75.1919 31.1226C69.7319 31.1226 68.3279 27.3396 68.3279 24.2976C68.3279 17.4336 74.2169 17.1216 77.6099 17.1216C79.8329 17.1216 81.3539 17.3556 81.3539 17.3556L81.3529 16.0148C81.3438 14.8649 81.2579 13.7406 80.5739 12.9486C79.9499 12.2466 78.8189 11.7786 76.5959 11.7786C74.8019 11.7786 72.1499 12.2466 70.5119 14.3916C70.5119 14.3916 70.6289 13.3386 70.6289 11.6616C70.6289 9.90661 70.5119 9.00961 70.5119 9.00961C70.5119 9.00961 72.9299 7.83961 78.5069 7.83961C83.4209 7.83961 85.4879 9.04861 86.4629 10.2966C87.8669 11.9736 87.9059 14.2356 87.9059 16.8096L87.9057 17.1262C87.9049 17.6412 87.9023 18.0969 87.8988 18.5385L87.8917 19.3279L87.8894 19.5628C87.8805 20.4673 87.8708 21.4582 87.8678 22.911L87.8669 23.8296C87.8669 26.6766 88.1009 28.0806 88.8029 29.3676L89.1539 30.0306L81.4709 31.0056L81.6659 26.3256ZM78.234 27.3392C76.479 27.3392 75.036 26.2862 75.036 23.8292C75.036 20.3582 77.844 20.2802 79.365 20.2802C80.5281 20.2802 81.0755 20.3486 81.2687 20.3808L81.3336 20.3927L81.3482 20.3959L81.354 20.3972V25.9742C81.354 25.9742 80.691 27.3392 78.234 27.3392ZM107.514 31.2386C109.932 30.9655 111.609 29.5616 111.609 27.2216C111.609 24.9206 110.244 23.6336 107.514 23.2826C105.096 23.5556 103.419 24.9206 103.419 27.2606C103.419 29.6006 104.784 30.8876 107.514 31.2386ZM138.741 2.925C138.741 5.226 137.064 5.84999 134.763 5.84999C132.54 5.84999 130.746 5.265 130.746 3.042C130.746 0.741003 132.462 0.117004 134.724 0.117004C136.947 0.117004 138.741 0.702003 138.741 2.925ZM134.763 30.653L134.415 30.6533C131.352 30.6585 130.083 30.731 130.083 30.731L130.434 30.068L130.458 30.0249C130.535 29.8846 130.607 29.7531 130.674 29.6166L130.736 29.4858L130.796 29.3493C131.211 28.3447 131.409 26.7068 131.409 20.1231V18.5631C131.409 12.2659 131.103 10.8948 130.555 9.82045L130.475 9.66848L130.434 9.59308L130.083 8.93008L138.468 7.95508C138.468 7.95508 138.117 10.1391 138.117 18.5241L138.118 21.0304C138.132 27.4405 138.309 28.5759 139.092 30.068L139.443 30.731C139.443 30.731 138.078 30.653 134.763 30.653ZM155.393 26.1679C155.393 28.2349 153.95 31.0819 148.958 31.0819C145.955 31.0819 144.356 30.0289 143.459 28.8199C142.601 27.6499 142.328 25.6999 142.328 22.8919L142.329 21.9313C142.338 15.3686 142.445 12.206 142.445 12.206H139.91C139.988 12.167 141.314 10.841 143.225 8.22797C145.019 5.77097 146.228 3.62598 146.228 3.62598H149.153V8.38397H151.337C153.763 8.38397 154.708 8.13708 155.022 8.01789L155.093 7.98883C155.14 7.96772 155.159 7.95497 155.159 7.95497C155.159 7.95497 155.12 8.61797 155.12 10.295L155.12 10.5648C155.124 12.0394 155.159 12.596 155.159 12.596C155.159 12.596 154.574 12.206 151.337 12.206H149.153V22.8139C149.153 24.4909 149.231 25.2319 149.582 25.9339C149.972 26.7529 150.791 27.2989 152.234 27.2989C154.379 27.2989 155.393 26.1679 155.393 26.1679Z" fill="black"/>
<path fill-rule="evenodd" clip-rule="evenodd" d="M119.164 30.6539L118.816 30.6542C115.747 30.6594 114.406 30.7319 114.406 30.7319L114.796 30.0689L114.819 30.0257C114.896 29.8855 114.968 29.754 115.036 29.6175L115.098 29.4867L115.157 29.3502C115.573 28.3456 115.771 26.7077 115.771 20.124V12.558H113.275C115.303 10.881 115.615 9.35998 115.732 7.91698L115.771 7.29299C116.044 2.72999 118.072 0 124.429 0C127.198 0 128.173 0.350999 128.173 0.350999C128.173 0.350999 128.134 1.677 128.134 2.84699C128.134 4.17299 128.173 5.57699 128.173 5.57699C128.145 5.54271 128.112 5.50171 128.076 5.45528L128.076 5.45505C127.654 4.92026 126.667 3.66599 125.053 3.66599C124 3.66599 123.337 4.01699 122.986 4.52399C122.401 5.26499 122.362 6.08399 122.362 7.91698V9.08698H123.415C126.379 9.08698 127.081 8.65798 127.081 8.65798C127.081 8.65798 127.042 9.32098 127.042 10.959L127.042 11.2288C127.046 12.7034 127.081 13.26 127.081 13.26C127.081 13.26 126.301 12.831 123.415 12.831H122.479L122.48 20.8021C122.496 27.6893 122.709 28.6084 123.532 30.0299L123.961 30.7319C123.961 30.7319 122.596 30.6539 119.164 30.6539ZM89.451 8.9297L97.329 7.95471L97.1339 14.5456L97.1929 14.1639C98.1203 8.54516 100.994 7.79871 102.711 7.79871C104.739 7.79871 105.402 8.5007 105.402 8.5007C105.402 8.5007 105.324 9.4757 105.324 11.8157L105.324 12.134C105.33 14.5114 105.402 15.4427 105.402 15.4427C104.193 13.6877 102.477 13.2197 100.995 13.2197C98.148 13.2197 97.485 14.8187 97.485 14.8187L97.4854 20.5804C97.4999 28.252 97.8822 28.9058 98.4438 29.8662L98.4857 29.9381C98.503 29.9678 98.5204 29.9979 98.538 30.0287L98.967 30.7307C98.967 30.7307 97.446 30.6527 94.131 30.6527L93.7833 30.653C90.7203 30.6581 89.451 30.7307 89.451 30.7307L89.802 30.0677C89.8361 30.006 89.8693 29.9467 89.9017 29.8884L89.9654 29.7728C90.4869 28.8123 90.777 27.8518 90.777 20.1227V18.5627C90.777 12.2655 90.4713 10.8944 89.9232 9.82007L89.8432 9.66811L89.802 9.5927L89.451 8.9297ZM15.795 24.0242C15.795 28.0412 13.104 31.0052 7.01999 31.0052C2.77875 31.0052 0.459316 29.9803 0.0616991 29.7881L0 29.7572C0 29.7572 0.0779999 29.0162 0.0779999 26.8712L0.0774861 26.55C0.0707482 24.4578 0 23.3612 0 23.3612C1.716 26.1692 3.66599 27.1052 6.23999 27.1052C8.77498 27.1052 9.59398 26.1692 9.59398 24.9212C9.59398 23.7122 8.96998 23.2052 7.68299 22.5422L4.60199 20.9822C2.067 19.7342 0.0389999 18.0962 0.0389999 14.5083C0.0389999 10.2183 2.96399 7.83926 8.22898 7.83926C13.104 7.83926 14.937 9.08726 14.937 9.08726C14.937 9.08726 14.859 9.90626 14.859 12.1293L14.8595 12.4487C14.8666 14.4197 14.937 15.4053 14.937 15.4053C13.494 13.1043 11.895 11.7003 9.16498 11.7003C7.37099 11.7003 6.00599 12.0903 6.00599 13.6503C6.00599 14.8983 6.82499 15.4053 8.50198 16.2632L11.193 17.5892C14.04 18.9542 15.795 20.6702 15.795 24.0242ZM34.0472 25.5444C33.1502 29.6784 30.6152 31.1214 27.1442 31.1214C24.1022 31.1214 22.2302 30.1854 21.2162 28.3524C20.2802 26.7144 20.1632 24.9204 20.1632 20.3574L20.1629 18.1215C20.1561 12.6317 20.018 11.2258 19.6044 10.2143L19.5368 10.0573C19.5018 9.97995 19.4651 9.90381 19.4265 9.8271L19.3469 9.67239L19.3052 9.59346L18.9542 8.93046L27.1052 7.95546C27.1052 7.95546 26.8712 11.2315 26.8712 16.2234V18.7974C26.8712 23.3214 27.0272 24.7254 27.5342 25.5444C27.8852 26.2074 28.5872 26.9094 30.3422 26.9094C33.2282 26.9094 33.7742 25.1934 33.7742 25.1934L33.7739 18.1215C33.7664 12.0538 33.5985 10.9751 33.0754 9.90368L32.9983 9.75013C32.9717 9.69861 32.9444 9.64656 32.9162 9.59346L32.5652 8.93046L40.6771 7.95546C40.6771 7.95546 40.4821 12.2455 40.4821 16.2234L40.4827 20.7989C40.4979 27.153 40.847 28.2216 41.4571 29.3274L41.8081 29.9904L33.8522 30.9654L34.0472 25.5444ZM53.8199 39.0006C58.7729 39.0006 66.3779 37.3236 66.3779 30.9276C66.3779 26.1306 62.7119 25.5456 59.2799 25.5456H53.7029C52.4159 25.5456 51.4019 25.3116 51.4019 23.9856C51.4019 23.1936 51.737 22.7087 51.8401 22.5783L51.8699 22.5426C51.8699 22.5426 53.4689 22.6596 54.5999 22.6596C61.6199 22.6596 63.8039 19.1886 63.8039 15.9906C63.8039 13.1323 62.2081 12.1237 61.9894 11.9854L61.9709 11.9736H62.8289C65.0909 12.0126 66.4559 12.4026 66.4559 12.4026C66.4559 12.4026 66.4169 11.8956 66.4169 10.2576C66.4169 8.61961 66.4559 7.95661 66.4559 7.95661L66.4224 7.96287L66.3238 7.98038C65.8032 8.07043 63.7928 8.38561 61.1519 8.38561H58.0319L58.0013 8.37487C57.7773 8.2984 56.3354 7.83961 53.9759 7.83961C47.6969 7.83961 44.5769 11.2716 44.5769 15.3276C44.5769 18.9546 46.6829 21.7626 51.1289 22.3866C51.1289 22.3866 46.6049 23.4786 46.6049 26.9496C46.6049 29.7186 49.1399 30.1086 49.1399 30.1086C47.4629 30.3036 43.8749 30.9666 43.8749 34.3206C43.8749 37.5576 48.1649 39.0006 53.8199 39.0006ZM50.856 15.3663C50.856 18.0963 51.987 19.5783 54.327 19.5783C57.018 19.5783 57.681 17.4333 57.681 15.2103C57.681 12.4803 56.55 10.9593 54.21 10.9593C51.519 10.9593 50.856 13.1433 50.856 15.3663ZM54.483 35.6461C49.998 35.6461 48.867 34.2421 48.867 32.6431C48.867 30.8881 50.115 30.4201 50.115 30.4201H58.032C59.397 30.4201 60.957 30.5371 60.957 32.2921C60.957 34.5931 58.11 35.6461 54.483 35.6461ZM81.6659 26.3256C80.6129 30.5766 77.6099 31.1226 75.1919 31.1226C69.7319 31.1226 68.3279 27.3396 68.3279 24.2976C68.3279 17.4336 74.2169 17.1216 77.6099 17.1216C79.8329 17.1216 81.3539 17.3556 81.3539 17.3556L81.3529 16.0148C81.3438 14.8649 81.2579 13.7406 80.5739 12.9486C79.9499 12.2466 78.8189 11.7786 76.5959 11.7786C74.8019 11.7786 72.1499 12.2466 70.5119 14.3916C70.5119 14.3916 70.6289 13.3386 70.6289 11.6616C70.6289 9.90661 70.5119 9.00961 70.5119 9.00961C70.5119 9.00961 72.9299 7.83961 78.5069 7.83961C83.4209 7.83961 85.4879 9.04861 86.4629 10.2966C87.8669 11.9736 87.9059 14.2356 87.9059 16.8096L87.9057 17.1262C87.9049 17.6412 87.9023 18.0969 87.8988 18.5385L87.8917 19.3279L87.8894 19.5628C87.8805 20.4673 87.8708 21.4582 87.8678 22.911L87.8669 23.8296C87.8669 26.6766 88.1009 28.0806 88.8029 29.3676L89.1539 30.0306L81.4709 31.0056L81.6659 26.3256ZM78.234 27.3392C76.479 27.3392 75.036 26.2862 75.036 23.8292C75.036 20.3582 77.844 20.2802 79.365 20.2802C80.5281 20.2802 81.0755 20.3486 81.2687 20.3808L81.3336 20.3927L81.3482 20.3959L81.354 20.3972V25.9742C81.354 25.9742 80.691 27.3392 78.234 27.3392ZM107.514 31.2386C109.932 30.9655 111.609 29.5616 111.609 27.2216C111.609 24.9206 110.244 23.6336 107.514 23.2826C105.096 23.5556 103.419 24.9206 103.419 27.2606C103.419 29.6006 104.784 30.8876 107.514 31.2386ZM138.741 2.925C138.741 5.226 137.064 5.84999 134.763 5.84999C132.54 5.84999 130.746 5.265 130.746 3.042C130.746 0.741003 132.462 0.117004 134.724 0.117004C136.947 0.117004 138.741 0.702003 138.741 2.925ZM134.763 30.653L134.415 30.6533C131.352 30.6585 130.083 30.731 130.083 30.731L130.434 30.068L130.458 30.0249C130.535 29.8846 130.607 29.7531 130.674 29.6166L130.736 29.4858L130.796 29.3493C131.211 28.3447 131.409 26.7068 131.409 20.1231V18.5631C131.409 12.2659 131.103 10.8948 130.555 9.82045L130.475 9.66848L130.434 9.59308L130.083 8.93008L138.468 7.95508C138.468 7.95508 138.117 10.1391 138.117 18.5241L138.118 21.0304C138.132 27.4405 138.309 28.5759 139.092 30.068L139.443 30.731C139.443 30.731 138.078 30.653 134.763 30.653ZM155.393 26.1679C155.393 28.2349 153.95 31.0819 148.958 31.0819C145.955 31.0819 144.356 30.0289 143.459 28.8199C142.601 27.6499 142.328 25.6999 142.328 22.8919L142.329 21.9313C142.338 15.3686 142.445 12.206 142.445 12.206H139.91C139.988 12.167 141.314 10.841 143.225 8.22797C145.019 5.77097 146.228 3.62598 146.228 3.62598H149.153V8.38397H151.337C153.763 8.38397 154.708 8.13708 155.022 8.01789L155.093 7.98883C155.14 7.96772 155.159 7.95497 155.159 7.95497C155.159 7.95497 155.12 8.61797 155.12 10.295L155.12 10.5648C155.124 12.0394 155.159 12.596 155.159 12.596C155.159 12.596 154.574 12.206 151.337 12.206H149.153V22.8139C149.153 24.4909 149.231 25.2319 149.582 25.9339C149.972 26.7529 150.791 27.2989 152.234 27.2989C154.379 27.2989 155.393 26.1679 155.393 26.1679Z" fill="white"/>
</svg>
